<svg xmlns="http://www.w3.org/2000/svg" xmlns:xlink="http://www.w3.org/1999/xlink" viewBox="0 0 32 32" id="bus" width="100%" height="100%">
    <!-- Generator: Sketch 46.2 (44496) - http://www.bohemiancoding.com/sketch -->
    <title>bus</title>
    <desc>Created with Sketch.</desc>

    <g id="bus_Icons-_-export" stroke="none" stroke-width="1" fill="none" fill-rule="evenodd">
        <g id="bus_bus" fill="#777">
            <g transform="translate(4.200000, 9.500000)">
                <path d="M23.605307,7.57823424 L22.4246284,0.493565272 C22.3774012,0.208997735 22.1318201,0 21.8425538,0 L1.18067859,0 C0.590339293,0 0,0.590389081 0,1.18077816 L0,10.0366144 C0,10.3306281 0.216064181,10.6270035 0.506511113,10.6270035 L3.01191107,10.6270035 C3.2858285,9.28091635 4.47831388,8.26544713 5.90339293,8.26544713 C7.32847198,8.26544713 8.52095735,9.28091635 8.79605546,10.6270035 L14.8175162,10.6270035 C15.0926144,9.28091635 16.2850997,8.26544713 17.7101788,8.26544713 C19.1352578,8.26544713 20.3277432,9.28091635 20.6028413,10.6270035 L23.0232324,10.6270035 C23.3490997,10.6270035 23.6135717,10.3625092 23.6135717,10.0366144 L23.6135717,7.67505805 C23.6135717,7.64317704 23.6112104,7.61011525 23.605307,7.57823424 L23.605307,7.57823424 Z M3.54203576,5.31350173 C3.54203576,5.6393965 3.27756375,5.90389081 2.95169646,5.90389081 L1.77101788,5.90389081 C1.44515059,5.90389081 1.18067859,5.6393965 1.18067859,5.31350173 L1.18067859,2.95194541 C1.18067859,2.62605063 1.44515059,2.36155632 1.77101788,2.36155632 L2.95169646,2.36155632 C3.27756375,2.36155632 3.54203576,2.62605063 3.54203576,2.95194541 L3.54203576,5.31350173 L3.54203576,5.31350173 Z M10.6261073,5.31350173 C10.6261073,5.6393965 10.3616353,5.90389081 10.035768,5.90389081 L5.31305364,5.90389081 C4.98718635,5.90389081 4.72271434,5.6393965 4.72271434,5.31350173 L4.72271434,2.95194541 C4.72271434,2.62605063 4.98718635,2.36155632 5.31305364,2.36155632 L10.035768,2.36155632 C10.3616353,2.36155632 10.6261073,2.62605063 10.6261073,2.95194541 L10.6261073,5.31350173 L10.6261073,5.31350173 Z M17.7101788,5.31350173 C17.7101788,5.6393965 17.4457068,5.90389081 17.1198395,5.90389081 L12.3971251,5.90389081 C12.0712579,5.90389081 11.8067859,5.6393965 11.8067859,5.31350173 L11.8067859,2.95194541 C11.8067859,2.62605063 12.0712579,2.36155632 12.3971251,2.36155632 L17.1198395,2.36155632 C17.4457068,2.36155632 17.7101788,2.62605063 17.7101788,2.95194541 L17.7101788,5.31350173 L17.7101788,5.31350173 Z M22.0692441,5.70315852 C21.9570797,5.83068256 21.7953267,5.90389081 21.625309,5.90389081 L19.4811967,5.90389081 C19.1553294,5.90389081 18.8908574,5.6393965 18.8908574,5.31350173 L18.8908574,2.95194541 C18.8908574,2.62605063 19.1553294,2.36155632 19.4811967,2.36155632 L21.3147905,2.36155632 C21.6111408,2.36155632 21.8614447,2.58118106 21.8992264,2.87519482 L22.2109256,5.23675115 C22.2333584,5.40560243 22.1814086,5.5744537 22.0692441,5.70315852 L22.0692441,5.70315852 Z" id="bus_Fill-6"></path>
                <path d="M5.90339293,9.4462253 C4.92579106,9.4462253 4.13237505,10.2397082 4.13237505,11.2173925 C4.13237505,12.1950769 4.92579106,12.9885598 5.90339293,12.9885598 C6.8809948,12.9885598 7.67441081,12.1950769 7.67441081,11.2173925 C7.67441081,10.2397082 6.8809948,9.4462253 5.90339293,9.4462253" id="bus_Fill-7"></path>
                <path d="M17.7101788,9.4462253 C16.7325769,9.4462253 15.9391609,10.2397082 15.9391609,11.2173925 C15.9391609,12.1950769 16.7325769,12.9885598 17.7101788,12.9885598 C18.6877807,12.9885598 19.4811967,12.1950769 19.4811967,11.2173925 C19.4811967,10.2397082 18.6877807,9.4462253 17.7101788,9.4462253" id="bus_Fill-8"></path>
            </g>
        </g>
    </g>
</svg>
