<svg xmlns="http://www.w3.org/2000/svg" xmlns:xlink="http://www.w3.org/1999/xlink" style="position: absolute; width: 100%; height: 100%" id="__SVG_SPRITE_NODE__">
  <!-- Generator: Sketch 46.2 (44496) - http://www.bohemiancoding.com/sketch -->
  <title>walk</title>
  <desc>Created with Sketch.</desc>
  <defs></defs>
  <g id="walk_Icons-_-export" stroke="none" stroke-width="1" fill="none" fill-rule="evenodd">
      <g id="walk_walk" fill="#777">
          <g id="walk_transport-icons" transform="translate(10.344444, 6.000000)">
              <g id="walk_walk" transform="translate(0.560803, 0.602296)">
                  <path d="M3.3516647,12.0907717 C3.20545455,11.9607962 2.98817001,11.8704225 2.81048406,11.9547036 C2.54040142,12.0836637 0.266021251,17.2004352 0.266021251,17.2004352 C0.180731995,17.380167 0.194946871,17.7162756 0.304604486,17.8838222 C0.413246753,18.0503534 0.602101535,18.2778106 0.804155844,18.2778106 L1.335183,18.2778106 C1.57480519,18.2778106 1.79005903,18.0107515 1.88245573,17.794464 C1.97180638,17.5852846 4.10505313,13.7652222 4.19948052,13.4605921 C4.26649351,13.2463355 4.1822196,12.8371156 4.01367178,12.685816 L3.3516647,12.0907717" id="walk_Fill-9"></path>
                  <path d="M5.59050767,3.04630176 C6.43121606,3.04630176 7.11353011,2.36393017 7.11353011,1.52315088 C7.11353011,0.682371595 6.43121606,0 5.59050767,0 C4.74878394,0 4.06748524,0.682371595 4.06748524,1.52315088 C4.06748524,2.36393017 4.74878394,3.04630176 5.59050767,3.04630176" id="walk_Fill-10"></path>
                  <path d="M9.17671783,9.70247111 C9.44273908,9.86697141 9.79811098,9.81823058 10.005242,9.57554187 C10.2306494,9.31051362 10.1951122,8.91754069 9.92502952,8.6961761 L7.46890201,6.72420342 L6.85969303,5.54020747 C6.85664699,5.53411487 6.85563164,5.52700683 6.8525856,5.52091423 C6.33272727,4.50446487 6.20377804,3.97745467 5.09806375,3.97745467 C3.83598583,3.97745467 1.58800472,4.92790082 1.36056671,5.74329426 C1.35955136,5.74735599 1.36158205,5.75040229 1.36056671,5.75446403 C1.34736718,5.78695792 1.33112161,5.81843637 1.32198347,5.85296112 L0.021322314,9.45775154 C-0.0588902007,9.75933541 0.0944273908,10.081228 0.395985832,10.2091726 C0.729020071,10.350318 1.11586777,10.2010492 1.26106257,9.87509488 L2.9333412,6.84402463 C3.01355372,6.64601501 3.72835891,6.21344016 3.5598111,7.10803745 C2.73230224,9.06477861 3.04299882,10.6062073 3.86949233,11.2540541 C5.3072255,12.3801704 5.69813459,13.0219246 6.13676505,13.7631914 C6.5246281,14.4201771 7.56739079,16.4530758 7.92276269,17.6979978 C7.99789847,17.9589643 8.22432113,18.2778106 8.50252656,18.2778106 L9.3127745,18.0716775 C9.53513577,18.0077052 9.74835891,17.824927 9.70063754,17.5070962 C9.59808737,16.8176166 8.89038961,14.6740356 8.31468713,13.3803728 C8.0070366,12.6898777 7.15312869,11.3667673 6.55813459,10.6681488 C6.32257379,10.3909353 6.12153483,10.1512929 5.99867769,9.98577718 C5.9631405,9.93906722 5.70524203,9.51258497 6.13676505,7.78634731 L9.17671783,9.70247111" id="walk_Fill-11"></path>
              </g>
          </g>
      </g>
  </g>
</svg>
