<svg xmlns="http://www.w3.org/2000/svg" xmlns:xlink="http://www.w3.org/1999/xlink" viewBox="0 0 16 16" id="clock" width="100%" height="100%">
    <!-- Generator: Sketch 50.2 (55047) - http://www.bohemiancoding.com/sketch -->
    <title>clock</title>
    <desc>Created with Sketch.</desc>

    <g id="clock_Reisedetaljer" stroke="none" stroke-width="1" fill="none" fill-rule="evenodd">
        <g id="clock_Reisedetaljer_ruter_endre_avgangstid" transform="translate(-320.000000, -377.000000)" fill="#656782">
            <g id="clock_klokke" transform="translate(320.000000, 377.000000)">
                <path d="M8,14 C4.7,14 2,11.3 2,8 C2,4.7 4.7,2 8,2 C11.3,2 14,4.7 14,8 C14,11.3 11.3,14 8,14 M8,0 C3.6,0 0,3.6 0,8 C0,12.4 3.6,16 8,16 C12.4,16 16,12.4 16,8 C16,3.6 12.4,0 8,0" id="clock_Fill-356"></path>
                <polygon id="clock_Fill-357" points="9 4 7 4 7 9 12 9 12 7 9 7"></polygon>
            </g>
        </g>
    </g>
</svg>
