<svg version="1.1" xmlns="http://www.w3.org/2000/svg" xmlns:xlink="http://www.w3.org/1999/xlink" viewBox="0 0 191 191"><g fill="none" fill-rule="nonzero" stroke="none" stroke-width="1" stroke-linecap="butt" stroke-linejoin="miter" stroke-miterlimit="10" stroke-dasharray="" stroke-dashoffset="0" font-family="none" font-weight="none" font-size="none" text-anchor="none" style="mix-blend-mode: normal"><path d="M0,191.99654v-191.99654h191.99654v191.99654z" fill="none"></path><g fill="#ffffff"><path d="M71.3763,23.36206l-42.49626,17.00472c-3.02417,1.20967 -5.00505,4.12826 -5.00505,7.38322v111.41667c0,5.62654 5.683,9.47626 10.91162,7.38322l37.08708,-14.82861l47.75,15.91667l42.49626,-17.00472c3.02417,-1.20967 5.00504,-4.12826 5.00504,-7.38322v-111.41667c0,-5.62654 -5.683,-9.47626 -10.91162,-7.38322l-37.08707,14.82861zM79.58333,42.8693l31.83333,10.61629v94.6451l-31.83333,-10.61629zM63.66667,43.58431v94.27206l-23.875,9.55933v-94.27206zM151.20833,43.58431v94.27206l-23.875,9.55933v-94.27206z"></path></g></g></svg>
