<svg xmlns="http://www.w3.org/2000/svg" xmlns:xlink="http://www.w3.org/1999/xlink" viewBox="0 0 32 32" id="metro" width="100%" height="100%">
    <!-- Generator: Sketch 46.2 (44496) - http://www.bohemiancoding.com/sketch -->
    <title>metro</title>
    <desc>Created with Sketch.</desc>

    <g id="metro_Icons-_-export" stroke="none" stroke-width="1" fill="none" fill-rule="evenodd">
        <g id="metro_metro" fill="#777">
            <g transform="translate(8.000000, 8.000000)">
                <polyline id="metro_Fill-1" points="4.36363636 5.81818182 7.27272727 5.81818182 7.27272727 13.0909091 8.72727273 13.0909091 8.72727273 5.81818182 11.6363636 5.81818182 11.6363636 4.36363636 4.36363636 4.36363636 4.36363636 5.81818182"></polyline>
                <path d="M8,0 C3.58181818,0 0,3.58181818 0,8 C0,12.4181818 3.58181818,16 8,16 C12.4181818,16 16,12.4181818 16,8 C16,3.58181818 12.4181818,0 8,0 L8,0 Z M8,14.5454545 C4.39054545,14.5454545 1.45454545,11.6094545 1.45454545,8 C1.45454545,4.39054545 4.39054545,1.45454545 8,1.45454545 C11.6094545,1.45454545 14.5454545,4.39054545 14.5454545,8 C14.5454545,11.6094545 11.6094545,14.5454545 8,14.5454545 L8,14.5454545 Z" id="metro_Fill-2"></path>
            </g>
        </g>
    </g>
</svg>
