<svg xmlns="http://www.w3.org/2000/svg" xmlns:xlink="http://www.w3.org/1999/xlink" viewBox="0 0 32 32" id="train" width="100%" height="100%">
    <!-- Generator: Sketch 46.2 (44496) - http://www.bohemiancoding.com/sketch -->
    <title>train</title>
    <desc>Created with Sketch.</desc>

    <g id="train_Icons-_-export" stroke="none" stroke-width="1" fill="none" fill-rule="evenodd">
        <g id="train_train" fill="#777">
            <g transform="translate(4.700000, 5.500000)">
                <path d="M22.8175763,9.07592992 C22.2969241,8.55523387 19.0390038,6.14179668 17.2299023,4.94331695 C16.6378527,4.55334417 15.9766026,4.39405951 15.582269,4.39405951 L8.57213824,4.39405951 L11.9838377,2.68806591 C12.1694711,2.59469214 12.2870023,2.40464907 12.2870023,2.19702976 C12.2870023,1.98831193 12.1694711,1.79826886 11.9838377,1.70599361 L7.59014876,0.0582212885 C7.31883847,-0.0768960415 6.9893118,0.0318569315 6.85310744,0.303190106 C6.71690308,0.574523281 6.8267453,0.90517626 7.09915402,1.04029359 L10.5097551,2.19702976 L6.11606612,4.39405951 L0.179012494,4.39405967 L0.179012494,14.2806929 L23.2712246,14.2806934 L22.1728024,12.6329211 C22.7692457,11.9507434 23.2712246,11.3070136 23.2712246,10.6742691 C23.2712246,9.26707151 23.1877446,9.44722795 22.8175763,9.07592992 Z M18.99287,8.5058007 C18.9181773,8.72989774 18.7072802,8.78811902 18.4711195,8.78811902 L17.3726972,8.78811902 C17.2540676,8.78811902 17.0673358,8.80569526 16.9036709,8.68485863 L15.3362224,7.57865414 C15.1472938,7.43694572 15.0704042,7.18977988 15.1461953,6.96568284 C15.2197896,6.74268432 15.4306867,6.59108927 15.6668475,6.59108927 L16.7652697,6.59108927 C16.8838993,6.59108927 16.9992337,6.62953729 17.0947964,6.70203927 L18.8017446,7.98620316 C18.9906732,8.12791158 19.0675627,8.28170367 18.99287,8.5058007 L18.99287,8.5058007 Z" id="train_Fill-1"></path>
                <path d="M0.197689251,15.3792083 L0.197689251,16.4777232 L21.6235913,16.4777232 C21.9267558,16.4777232 22.1728024,16.2316558 22.1728024,15.9284657 C22.1728024,15.6252756 21.9267558,15.3792083 21.6235913,15.3792083 L0.197689251,15.3792083 Z" id="train_Fill-2"></path>
            </g>
        </g>
    </g>
</svg>
