<svg xmlns="http://www.w3.org/2000/svg" xmlns:xlink="http://www.w3.org/1999/xlink" viewBox="0 0 48 48" version="1.1">
<g id="surface1">
<path style=" fill:#455A64;" d="M 16 36 C 16 35.445313 15.554688 35 15 35 L 11 35 C 10.445313 35 10 35.445313 10 36 L 10 42 C 10 42.554688 10.445313 43 11 43 L 15 43 C 15.554688 43 16 42.554688 16 42 Z "></path>
<path style=" fill:#455A64;" d="M 38 36 C 38 35.445313 37.554688 35 37 35 L 33 35 C 32.445313 35 32 35.445313 32 36 L 32 42 C 32 42.554688 32.445313 43 33 43 L 37 43 C 37.554688 43 38 42.554688 38 42 Z "></path>
<path style=" fill:#FFC107;" d="M 37.5 4 L 10.5 4 C 9.117188 4 8 5.117188 8 6.5 L 8 37 C 8 37 8 39 10 39 C 12 39 36 39 38 39 C 40 39 40 37 40 37 L 40 6.5 C 40 5.117188 38.882813 4 37.5 4 Z "></path>
<path style=" fill:#FFC107;" d="M 10 22.5 C 10 23.328125 9.328125 24 8.5 24 L 7.5 24 C 6.671875 24 6 23.328125 6 22.5 L 6 19.5 C 6 18.671875 6.671875 18 7.5 18 L 8.5 18 C 9.328125 18 10 18.671875 10 19.5 Z "></path>
<path style=" fill:#FFC107;" d="M 42 22.5 C 42 23.328125 41.328125 24 40.5 24 L 39.5 24 C 38.671875 24 38 23.328125 38 22.5 L 38 19.5 C 38 18.671875 38.671875 18 39.5 18 L 40.5 18 C 41.328125 18 42 18.671875 42 19.5 Z "></path>
<path style=" fill:#FFF8E1;" d="M 16 32.5 C 16 33.878906 14.878906 35 13.5 35 C 12.121094 35 11 33.878906 11 32.5 C 11 31.121094 12.121094 30 13.5 30 C 14.878906 30 16 31.121094 16 32.5 Z "></path>
<path style=" fill:#FFF8E1;" d="M 37 32.5 C 37 33.878906 35.878906 35 34.5 35 C 33.121094 35 32 33.878906 32 32.5 C 32 31.121094 33.121094 30 34.5 30 C 35.878906 30 37 31.121094 37 32.5 Z "></path>
<path style=" fill:#9FA8DA;" d="M 36.5 6 L 11.5 6 C 10.671875 6 10 6.671875 10 7.5 L 10 23.5 C 10 24.882813 11.117188 26 12.5 26 L 35.5 26 C 36.882813 26 38 24.882813 38 23.5 L 38 7.5 C 38 6.671875 37.328125 6 36.5 6 Z "></path>
<path style=" fill:#263238;" d="M 38 12 L 10 12 L 10 7.5 C 10 6.671875 10.671875 6 11.5 6 L 36.5 6 C 37.328125 6 38 6.671875 38 7.5 Z "></path>
<path style=" fill:#64DD17;" d="M 12 8 L 23 8 L 23 10 L 12 10 Z "></path>
<path style=" fill:#64DD17;" d="M 25 8 L 29 8 L 29 10 L 25 10 Z "></path>
<path style=" fill:#7986CB;" d="M 21 26 L 13 26 L 13 18.5 C 13 17.671875 13.671875 17 14.5 17 L 19.5 17 C 20.328125 17 21 17.671875 21 18.5 Z "></path>
<path style=" fill:#7986CB;" d="M 35 26 L 27 26 L 27 18.5 C 27 17.671875 27.671875 17 28.5 17 L 33.5 17 C 34.328125 17 35 17.671875 35 18.5 Z "></path>
<path style=" fill:#3949AB;" d="M 28.429688 26 C 28.164063 25.703125 28 25.363281 28 25 C 28 23.914063 29.375 23 31 23 C 32.625 23 34 23.914063 34 25 C 34 25.363281 33.835938 25.703125 33.570313 26 L 35.820313 26 C 35.925781 25.679688 36 25.347656 36 25 C 36 22.792969 33.757813 21 31 21 C 28.242188 21 26 22.792969 26 25 C 26 25.347656 26.074219 25.679688 26.179688 26 Z "></path>
</g>
</svg>
