<svg xmlns="http://www.w3.org/2000/svg" xmlns:xlink="http://www.w3.org/1999/xlink" version="1.1" id="Layer_1" x="0px" y="0px" viewBox="0 0 48 48" style="enable-background:new 0 0 48 48;" xml:space="preserve">
<g id="surface1">
	<rect x="23" y="10.2" style="fill:#BF360C;" width="2" height="5.8"></rect>
	<path style="fill:#BF360C;" d="M24,18c-3.4,0-6-2-6-4.5S20.6,9,24,9s6,2,6,4.5S27.4,18,24,18z M24,11c-2.2,0-4,1.1-4,2.5   s1.8,2.5,4,2.5c2.2,0,4-1.1,4-2.5S26.2,11,24,11z"></path>
	<path style="fill:#455A64;" d="M38,20.5c0-3.6-6.3-6.5-14-6.5s-14,2.9-14,6.5S16.3,27,24,27S38,24.1,38,20.5z"></path>
	<path style="fill:#263238;" d="M21,21h1c-1-3.4-2.6-5.3-4.1-6.4c-1,0.2-1.9,0.5-2.7,0.8C18.2,16.6,20.2,19.7,21,21z"></path>
	<path style="fill:#263238;" d="M27,21h-1c1-3.4,2.6-5.3,4.1-6.4c1,0.2,1.9,0.5,2.7,0.8C29.8,16.6,27.8,19.7,27,21z"></path>
	<path style="fill:#FF5722;" d="M43,25c0,2.8-2.2,5-5,5H9.5c-2.8,0-5-2.2-5-5s2.2-5,5-5H38C40.8,20,43,22.2,43,25z"></path>
	<path style="fill:#D84315;" d="M4.5,25c0,0.3,0,0.7,0.1,1h38.3c0.1-0.3,0.1-0.7,0.1-1s0-0.7-0.1-1H4.6C4.5,24.3,4.5,24.7,4.5,25z"></path>
	<path style="fill:#90CAF9;" d="M44,30c-3,0-4-2-4-2s-1,2-4,2s-4-2-4-2s-1,2-4,2s-4-2-4-2s-1,2-4,2s-4-2-4-2s-1,2-4,2s-4-2-4-2   s-1,2-4,2v8h40V30z"></path>
	<path style="fill:#2196F3;" d="M44,34c-3,0-4-2-4-2s-1,2-4,2s-4-2-4-2s-1,2-4,2s-4-2-4-2s-1,2-4,2s-4-2-4-2s-1,2-4,2s-4-2-4-2   s-1,2-4,2v4h40V34z"></path>
</g>
</svg>
