<svg xmlns="http://www.w3.org/2000/svg" xmlns:xlink="http://www.w3.org/1999/xlink" viewBox="0 0 48 48" version="1.1">
<g id="surface1">
<path style=" fill:#FFB74D;" d="M 34.515625 28.023438 C 34.359375 28.023438 34.199219 28 34.039063 27.949219 L 28.523438 25.425781 C 28.074219 25.273438 27.722656 24.921875 27.574219 24.472656 L 24 16 C 23.738281 15.214844 25.054688 14.710938 25.84375 14.449219 C 26.628906 14.191406 27.476563 14.617188 27.738281 15.402344 L 30.1875 22.816406 L 34.988281 25.101563 C 35.777344 25.363281 36.199219 26.214844 35.9375 27 C 35.726563 27.628906 35.144531 28.023438 34.515625 28.023438 Z "></path>
<path style=" fill:#606FC4;" d="M 26.789063 22.605469 L 29.644531 21.175781 L 27.734375 15.402344 C 27.476563 14.617188 26.628906 14.191406 25.84375 14.449219 C 25.054688 14.710938 23.738281 15.214844 24 16 Z "></path>
<path style=" fill:#FFB74D;" d="M 26.5 4 C 28.433594 4 30 5.566406 30 7.5 C 30 9.433594 28.433594 11 26.5 11 C 24.566406 11 23 9.433594 23 7.5 C 23 5.566406 24.566406 4 26.5 4 "></path>
<path style=" fill:#B2AEAD;" d="M 13 44 C 12.546875 44 12.09375 43.847656 11.71875 43.535156 C 10.871094 42.828125 10.757813 41.566406 11.464844 40.71875 L 16.203125 35.035156 L 19.085938 25.425781 C 19.402344 24.367188 20.519531 23.765625 21.574219 24.085938 C 22.632813 24.402344 24.316406 25.941406 24 27 L 19.914063 36.574219 C 19.839844 36.832031 19.710938 37.074219 19.535156 37.28125 L 14.535156 43.28125 C 14.140625 43.753906 13.570313 44 13 44 Z "></path>
<path style=" fill:#7E8CCF;" d="M 22.003906 30.5 C 21.796875 30.5 21.585938 30.480469 21.375 30.441406 C 19.472656 30.097656 18.210938 28.273438 18.558594 26.375 L 21.058594 15.875 C 21.402344 13.972656 23.222656 12.707031 25.125 13.058594 C 27.027344 13.402344 28.289063 15.226563 27.941406 17.125 L 25.441406 27.625 C 25.136719 29.316406 23.664063 30.5 22.003906 30.5 Z "></path>
<path style=" fill:#FFB74D;" d="M 13.515625 29 C 13.441406 29 13.367188 28.992188 13.289063 28.984375 C 12.472656 28.859375 11.90625 28.09375 12.03125 27.273438 L 13.609375 19.742188 C 13.671875 19.359375 13.875 19.015625 14.183594 18.777344 L 20.992188 13.558594 C 22 13 23 13 24.609375 13 C 25.4375 13 23.65625 16.496094 23 17 L 16.484375 20.792969 L 14.996094 27.726563 C 14.882813 28.46875 14.242188 29 13.515625 29 Z "></path>
<path style=" fill:#D2CCC9;" d="M 29.296875 34.734375 C 29.277344 34.703125 29.253906 34.675781 29.230469 34.644531 L 25.300781 28.144531 C 25.355469 27.976563 25.410156 27.804688 25.441406 27.625 L 25.503906 27.375 L 18.722656 25.679688 L 18.554688 26.375 C 18.3125 27.707031 18.871094 28.992188 19.878906 29.765625 L 26 37 L 29.335938 43.109375 C 29.722656 43.6875 30.355469 44 31.003906 44 C 31.382813 44 31.769531 43.890625 32.109375 43.664063 C 33.027344 43.050781 33.277344 41.808594 32.664063 40.890625 Z "></path>
<path style=" fill:#7E8CCF;" d="M 24.609375 13 C 23 13 22 13 20.992188 13.558594 L 16.6875 16.859375 L 18.769531 19.464844 L 23 17 C 23.65625 16.496094 25.4375 13 24.609375 13 Z "></path>
</g>
</svg>
