<svg version="1.1" xmlns="http://www.w3.org/2000/svg" xmlns:xlink="http://www.w3.org/1999/xlink" viewBox="0 0 223 223"><g fill="none" fill-rule="nonzero" stroke="none" stroke-width="1" stroke-linecap="butt" stroke-linejoin="miter" stroke-miterlimit="10" stroke-dasharray="" stroke-dashoffset="0" font-family="none" font-weight="none" font-size="none" text-anchor="none" style="mix-blend-mode: normal"><path d="M0,223.99307v-223.99307h223.99307v223.99307z" fill="none"></path><g id="Layer_1"><g id="surface1"><path d="M27.875,46.45833c0,-10.22083 8.3625,-18.58333 18.58333,-18.58333h130.08333c10.22083,0 18.58333,8.3625 18.58333,18.58333v130.08333c0,10.22083 -8.3625,18.58333 -18.58333,18.58333h-130.08333c-10.22083,0 -18.58333,-8.3625 -18.58333,-18.58333z" fill="#34495e"></path><path d="M106.85417,123.11458v-62.71875h9.29167v48.78125l49.24583,-20.44167l3.71667,8.3625z" fill="#ecf0f1"></path><path d="M78.05,165.39167l-7.43333,-5.575l32.98542,-41.34792l-49.24583,-16.725l2.7875,-8.3625l62.25417,20.44167z" fill="#ecf0f1"></path><rect x="2.12514" y="34.51673" transform="rotate(-38.65891) scale(4.64596,4.64596)" width="2" height="12.8" fill="#ecf0f1"></rect><path d="M125.4375,60.39583c0,7.89792 -6.03958,13.9375 -13.9375,13.9375c-7.89792,0 -13.9375,-6.03958 -13.9375,-13.9375c0,-7.89792 6.03958,-13.9375 13.9375,-13.9375c7.89792,0 13.9375,6.03958 13.9375,13.9375z" fill="#ecf0f1"></path><path d="M181.1875,92.91667c0,7.89792 -6.03958,13.9375 -13.9375,13.9375c-7.89792,0 -13.9375,-6.03958 -13.9375,-13.9375c0,-7.89792 6.03958,-13.9375 13.9375,-13.9375c7.89792,0 13.9375,6.03958 13.9375,13.9375z" fill="#ecf0f1"></path><path d="M134.72917,116.14583c0,13.00833 -10.22083,23.22917 -23.22917,23.22917c-13.00833,0 -23.22917,-10.22083 -23.22917,-23.22917c0,-13.00833 10.22083,-23.22917 23.22917,-23.22917c13.00833,0 23.22917,10.22083 23.22917,23.22917z" fill="#ecf0f1"></path><path d="M69.6875,97.5625c0,7.89792 -6.03958,13.9375 -13.9375,13.9375c-7.89792,0 -13.9375,-6.03958 -13.9375,-13.9375c0,-7.89792 6.03958,-13.9375 13.9375,-13.9375c7.89792,0 13.9375,6.03958 13.9375,13.9375z" fill="#ecf0f1"></path><path d="M88.27083,162.60417c0,7.89792 -6.03958,13.9375 -13.9375,13.9375c-7.89792,0 -13.9375,-6.03958 -13.9375,-13.9375c0,-7.89792 6.03958,-13.9375 13.9375,-13.9375c7.89792,0 13.9375,6.03958 13.9375,13.9375z" fill="#ecf0f1"></path><path d="M162.60417,162.60417c0,7.89792 -6.03958,13.9375 -13.9375,13.9375c-7.89792,0 -13.9375,-6.03958 -13.9375,-13.9375c0,-7.89792 6.03958,-13.9375 13.9375,-13.9375c7.89792,0 13.9375,6.03958 13.9375,13.9375z" fill="#ecf0f1"></path></g></g></g></svg>
