<svg xmlns="http://www.w3.org/2000/svg" xmlns:xlink="http://www.w3.org/1999/xlink" viewBox="0 0 48 48" version="1.1">
<g id="surface1">
<path style=" fill:#455A64;" d="M 12 45 L 16.699219 36.5 L 18.398438 37.5 L 14.300781 45 Z M 36 45 L 31.300781 36.5 L 29.601563 37.5 L 33.800781 45 Z "></path>
<path style=" fill:#B0BEC5;" d="M 40 38 C 40 38 40 40 38 40 C 30.300781 40 17.699219 40 10 40 C 8 40 8 38 8 38 L 8 10 C 8 7.601563 9.5 5.398438 11.800781 4.601563 L 15 3.398438 C 15.699219 3.101563 16.398438 3 17 3 L 31 3 C 31.699219 3 32.398438 3.101563 33 3.398438 L 36.300781 4.601563 C 38.601563 5.398438 40.101563 7.601563 40.101563 10 L 40.101563 38 Z "></path>
<path style=" fill:#37474F;" d="M 36.199219 4.601563 L 33 3.398438 C 32.300781 3.101563 31.601563 3 31 3 L 17 3 C 16.300781 3 15.601563 3.101563 15 3.398438 L 11.699219 4.601563 C 11.101563 4.800781 10.5 5.199219 10.101563 5.601563 L 10.800781 21.5 C 10.898438 24.800781 13.199219 27.699219 16.398438 28.699219 C 21 30.300781 27.398438 30.699219 31.699219 28.699219 C 35.101563 27.199219 37.101563 24.800781 37.300781 21.5 L 38 5.601563 C 37.398438 5.199219 36.898438 4.800781 36.199219 4.601563 Z "></path>
<path style=" fill:#455A64;" d="M 40 29 C 40 29 34.300781 33 30 33 C 25.699219 33 22.699219 33 18 33 C 13.300781 33 8 29 8 29 L 8 37 L 18 37 L 18 40 L 30 40 L 30 37 L 40 37 Z "></path>
<path style=" fill:#212121;" d="M 18 35 L 30 35 L 30 38 L 18 38 Z "></path>
<path style=" fill:#FFF9C4;" d="M 12 34.5 C 12 35.300781 11.300781 36 10.5 36 C 9.699219 36 9 35.300781 9 34.5 C 9 33.699219 9.699219 33 10.5 33 C 11.300781 33 12 33.699219 12 34.5 Z M 37.5 33 C 36.699219 33 36 33.699219 36 34.5 C 36 35.300781 36.699219 36 37.5 36 C 38.300781 36 39 35.300781 39 34.5 C 39 33.699219 38.300781 33 37.5 33 Z "></path>
<path style=" " d="M 15.699219 5.199219 L 12.398438 6.398438 C 12.300781 6.398438 12.199219 6.5 12.101563 6.5 L 12.300781 9 L 35.800781 9 L 35.898438 6.601563 C 35.800781 6.601563 35.699219 6.5 35.601563 6.5 L 32.300781 5.300781 C 31.898438 5.101563 31.398438 5 31 5 L 17 5 C 16.601563 5 16.101563 5.101563 15.699219 5.199219 Z "></path>
<path style=" " d="M 15.699219 5.199219 L 12.398438 6.398438 C 12.300781 6.398438 12.199219 6.5 12.101563 6.5 L 12.300781 9 L 35.800781 9 L 35.898438 6.601563 C 35.800781 6.601563 35.699219 6.5 35.601563 6.5 L 32.300781 5.300781 C 31.898438 5.101563 31.398438 5 31 5 L 17 5 C 16.601563 5 16.101563 5.101563 15.699219 5.199219 Z "></path>
<path style=" fill:#546E7A;" d="M 19 11 L 29 11 L 29 27.398438 C 27.699219 27.699219 26.199219 27.898438 24.601563 27.898438 C 22.800781 27.898438 20.800781 27.699219 19 27.199219 Z M 31 11 L 31 26.699219 C 34.699219 25 35.199219 22.800781 35.199219 21.300781 L 35.699219 11 Z M 17 11 L 12.300781 11 L 12.699219 21.300781 C 12.800781 23.800781 14.5 25.898438 16.800781 26.699219 L 16.800781 11 Z "></path>
<path style=" fill:#FF6D00;" d="M 19 6 L 29 6 L 29 8 L 19 8 Z "></path>
</g>
</svg>
