<svg xmlns="http://www.w3.org/2000/svg" xmlns:xlink="http://www.w3.org/1999/xlink" version="1.1" id="Layer_1" x="0px" y="0px" viewBox="0 0 48 48" style="enable-background:new 0 0 48 48;" xml:space="preserve">
<g id="surface1">

		<rect x="25.8" y="5" transform="matrix(0.3165 -0.9486 0.9486 0.3165 14.1294 31.6099)" style="fill:#455A64;" width="6.3" height="2"></rect>

		<rect x="18" y="2.8" transform="matrix(0.9487 -0.3162 0.3162 0.9487 -0.9223 6.3162)" style="fill:#455A64;" width="2" height="6.3"></rect>
	<path style="fill:#455A64;" d="M35,5.5h-2C33,4.7,32.3,4,31.5,4h-15C15.7,4,15,4.7,15,5.5h-2C13,3.6,14.6,2,16.5,2h15   C33.4,2,35,3.6,35,5.5z"></path>
	<path style="fill:#607D8B;" d="M14.3,46l4.2-7.5l-1.7-1L12,46H14.3z"></path>
	<path style="fill:#607D8B;" d="M33.7,46l-4.2-7.5l1.7-1L36,46H33.7z"></path>
	<path style="fill:#CFD8DC;" d="M38,39V13.5C38,9.9,35.1,7,31.5,7h-15C12.9,7,10,9.9,10,13.5V39c0,0,0,2,2,2s22,0,24,0S38,39,38,39z   "></path>
	<path style="fill:#FF3D00;" d="M10,26v13c0,0,0,2,2,2s22,0,24,0s2-2,2-2V26H10z"></path>
	<path style="fill:#DD2C00;" d="M24,27c-2.2,0-4,1.8-4,4s1.8,4,4,4s4-1.8,4-4S26.2,27,24,27z"></path>
	<path style="fill:#F9FBE7;" d="M26,31c0,1.1-0.9,2-2,2s-2-0.9-2-2s0.9-2,2-2S26,29.9,26,31z"></path>
	<path style="fill:#90A4AE;" d="M30,10c0,0.6-0.4,1-1,1H19c-0.6,0-1-0.4-1-1c0-0.6,0.4-1,1-1h10C29.6,9,30,9.4,30,10z"></path>
	<path style="fill:#911F05;" d="M18,36h12v3H18V36z"></path>
	<path style="fill:#455A64;" d="M17,13h-3.5c-0.8,0-1.5,0.7-1.5,1.5v8c0,0.8,0.7,1.5,1.5,1.5H17V13z"></path>
	<path style="fill:#455A64;" d="M19,13h10v11H19V13z"></path>
	<path style="fill:#455A64;" d="M34.5,13H31v11h3.5c0.8,0,1.5-0.7,1.5-1.5v-8C36,13.7,35.3,13,34.5,13z"></path>
</g>
</svg>
