<svg xmlns="http://www.w3.org/2000/svg" xmlns:xlink="http://www.w3.org/1999/xlink" viewBox="0 0 32 32" style="position: absolute; width: 100%; height: 100%" id="__SVG_SPRITE_NODE__">
  <!-- Generator: Sketch 46.2 (44496) - http://www.bohemiancoding.com/sketch -->
  <title>ferry</title>
  <desc>Created with Sketch.</desc>
  <defs></defs>
  <g id="ferry_Icons-_-export" stroke="none" stroke-width="1" fill="none" fill-rule="evenodd">
      <g id="ferry_ferry" fill="#393d79">
          <g transform="translate(2.800000, 6.500000)">
              <path d="M26.3426087,7.94688756 C26.2404783,7.7555236 26.0397391,7.63107832 25.8213913,7.63107832 L21.6563478,7.63107832 L20.4753913,2.79414868 C20.4108261,2.52999597 20.1736957,2.3480241 19.9001739,2.3480241 L17.9573478,2.3480241 L17.5006957,0.987344134 C17.4466957,0.826504483 17.3246087,0.696189145 17.1661304,0.631618483 C17.0064783,0.565873808 16.8280435,0.571743868 16.6742609,0.649228663 L14.3604783,1.82441472 C14.1597391,1.92420575 14.0869565,2.12730983 14.0869565,2.35037212 L14.0869565,4.10904217 L6.28043478,4.10904217 C6.05621739,4.10904217 5.85195652,4.23231344 5.751,4.43189549 L4.13804348,7.63107832 L2.72817391,7.63107832 C2.4933913,7.63107832 2.28208696,7.77313378 2.187,7.98562996 L0.180782609,12.469182 L0.628043478,12.4316136 C1.43921739,12.4503978 2.23982609,12.9517009 2.94417391,13.2827723 C3.95843478,13.7594212 4.86,13.3731713 5.78504348,12.9317427 C7.63513043,12.0488857 9.91252174,12.0054472 11.7907826,12.8342997 C12.6806087,13.2275938 13.4295652,13.6913285 14.4508696,13.4306978 C15.3254348,13.2064615 16.0696957,12.6358917 16.9677391,12.4304396 C18.1158261,12.1686349 19.3707391,12.178027 20.5129565,12.468008 C21.3053478,12.669938 22.3653913,13.0197936 22.8384783,13.7312449 L26.3132609,8.55267778 C26.4341739,8.37187992 26.445913,8.13825153 26.3426087,7.94688756 L26.3426087,7.94688756 Z M15.2608696,6.45824028 C15.2608696,6.13303895 15.4275652,5.87006025 15.755087,5.87006025 L18.1228696,5.87006025 C18.4503913,5.87006025 18.7826087,6.13303895 18.7826087,6.45824028 L18.7826087,7.04289828 C18.7826087,7.36809962 18.4503913,7.63107832 18.1228696,7.63107832 L15.755087,7.63107832 C15.4275652,7.63107832 15.2608696,7.36809962 15.2608696,7.04289828 L15.2608696,6.45824028 L15.2608696,6.45824028 Z M10.5652174,6.45824028 C10.5652174,6.13303895 10.6908261,5.87006025 11.0183478,5.87006025 L13.3861304,5.87006025 C13.7136522,5.87006025 14.0869565,6.13303895 14.0869565,6.45824028 L14.0869565,7.04289828 C14.0869565,7.36809962 13.7136522,7.63107832 13.3861304,7.63107832 L11.0183478,7.63107832 C10.6908261,7.63107832 10.5652174,7.36809962 10.5652174,7.04289828 L10.5652174,6.45824028 L10.5652174,6.45824028 Z M5.751,6.78931168 L6.04682609,6.20230566 C6.10669565,6.08490445 6.20413043,5.99450552 6.318,5.93815295 C6.39782609,5.89941055 6.48469565,5.87006025 6.57626087,5.87006025 L8.6493913,5.87006025 C8.97691304,5.87006025 9.39130435,6.14008302 9.39130435,6.46528436 L9.39130435,7.05346439 C9.39130435,7.37866573 8.97691304,7.63107832 8.6493913,7.63107832 L6.28043478,7.63107832 C6.075,7.63107832 5.88482609,7.53011328 5.77682609,7.35753351 C5.73808696,7.29531087 5.71695652,7.2295662 5.70404348,7.16029949 C5.6793913,7.03585421 5.69230435,6.90671289 5.751,6.78931168 L5.751,6.78931168 Z" id="ferry_Fill-13"></path>
              <path d="M21.6352174,14.1773695 C19.7956957,13.2416819 17.6873478,13.1700672 15.8290435,14.1081028 C14.9791304,14.5366172 14.1914348,14.7561574 13.2241304,14.6434523 C12.3319565,14.5401392 11.61,13.9730914 10.7706522,13.7030686 C8.78556522,13.0644061 7.18434783,13.6948506 5.38356522,14.4344781 C4.54891304,14.7772897 3.47478261,14.7772897 2.63895652,14.4344781 C2.00856522,14.1761955 1.269,13.5985816 0.572869565,13.5985816 C0.126782609,13.5985816 -0.0915652174,14.0482282 0.0727826087,14.4121719 C0.20426087,14.7056749 0.448434783,14.7538094 0.71726087,14.8606445 C1.53665217,15.1858459 2.34547826,15.5533116 3.21182609,15.7470236 C4.07582609,15.9407356 5.01143478,15.8573808 5.832,15.5227873 C6.59386957,15.2116741 7.2536087,14.7772897 8.08708696,14.6575404 C9.02034783,14.5237031 10.0017391,14.6094059 10.8657391,14.9991779 C11.6487391,15.3513816 12.3366522,15.7423276 13.2135652,15.8233344 C14.1503478,15.9113853 15.0742174,15.785766 15.9241304,15.3772098 C16.7294348,14.9886118 17.456087,14.6504964 18.3705652,14.6094059 C19.2157826,14.5718376 20.0281304,14.7045009 20.7911739,15.0719667 C21.1034348,15.2222402 21.4368261,15.4206483 21.7561304,15.1424074 C22.0660435,14.8712106 21.9991304,14.3628634 21.6352174,14.1773695" id="ferry_Fill-14"></path>
          </g>
      </g>
  </g>
</svg>
