<svg xmlns="http://www.w3.org/2000/svg" xmlns:xlink="http://www.w3.org/1999/xlink" viewBox="0 0 32 32" id="plane" width="100%" height="100%">
    <!-- Generator: Sketch 46.2 (44496) - http://www.bohemiancoding.com/sketch -->
    <title>plane</title>
    <desc>Created with Sketch.</desc>

    <g id="plane_Icons-_-export" stroke="none" stroke-width="1" fill="none" fill-rule="evenodd">
        <g id="plane_plane" fill="#4189c5">
            <g id="plane_airplane-copy" transform="translate(6.446819, 6.446013)">
                <path d="M14.8074302,7.83713513 L12.7620942,7.83713513 L8.36380979,0.699351812 C8.27592053,0.560819008 8.12498027,0.477699325 7.96448683,0.477699325 L6.66525425,0.477699325 C6.50285017,0.477699325 6.35190992,0.562729805 6.26402065,0.702218008 C6.17613139,0.842661609 6.16371225,1.01941036 6.23058452,1.17131875 L8.93509,7.89063745 L3.55951517,8.30910206 L1.80650649,6.05818284 C1.71479595,5.94162421 1.57818547,5.8747463 1.43297712,5.8747463 L0.95531808,5.8747463 C0.801511869,5.8747463 0.658214157,5.95022279 0.56745894,6.07824621 C0.47765904,6.20626963 0.453776088,6.3705982 0.50249731,6.52059579 L1.40718353,9.30844905 L0.50249731,12.0972577 C0.453776088,12.2462999 0.47765904,12.4115839 0.56745894,12.5396073 C0.658214157,12.6676307 0.801511869,12.7431072 0.95531808,12.7431072 L1.43297712,12.7431072 C1.57818547,12.7431072 1.71479595,12.6752739 1.80650649,12.5587153 L3.55951517,10.307796 L8.93509,10.7262606 L5.75292548,17.9366543 C5.68605321,18.0885626 5.69847235,18.2653114 5.78636161,18.405755 C5.87425088,18.5452432 6.02519113,18.6302737 6.18759521,18.6302737 L7.48682779,18.6302737 C7.64732123,18.6302737 7.79826149,18.547154 7.88615075,18.4086212 L12.7620942,10.7807184 L14.8074302,10.7807184 C14.845643,10.7807184 18.6287026,10.4157561 18.6287026,9.30844905 C18.6287026,8.20209741 14.845643,7.83713513 14.8074302,7.83713513" id="plane_airplane"></path>
            </g>
        </g>
    </g>
</svg>
