<svg xmlns="http://www.w3.org/2000/svg" xmlns:xlink="http://www.w3.org/1999/xlink" viewBox="0 0 32 32" id="tram" width="100%" height="100%">
    <!-- Generator: Sketch 46.2 (44496) - http://www.bohemiancoding.com/sketch -->
    <title>tram</title>
    <desc>Created with Sketch.</desc>

    <g id="tram_Icons-_-export" stroke="none" stroke-width="1" fill="none" fill-rule="evenodd">
        <g id="tram_tram" fill="#0f7cdb">
            <g id="tram_tram-copy" transform="translate(5.500000, 5.000000)">
                <path d="M19.774111,5.7173125 C19.7167516,5.4793125 19.5032473,5.3125 19.2589389,5.3125 L11.3794613,5.3125 L12.5808214,4.1044375 C12.6796069,4.0045625 12.7359041,3.848375 12.7359041,3.7070625 C12.7359041,3.5689375 12.6806691,3.4350625 12.584008,3.33625 L10.5158841,1.221875 C10.3108775,1.0125625 9.97415675,1.0083125 9.76490128,1.213375 C9.5545836,1.4195 9.55139697,1.75525 9.7564036,1.9645625 L11.4686869,3.7155625 L9.88068223,5.3125 L1.98527146,5.3125 C1.74096304,5.3125 1.52745872,5.4793125 1.47009936,5.7173125 C1.47009936,5.7173125 0,12.331375 0,12.75 C0,13.168625 0.94642957,14.5233125 0.94642957,14.5233125 C1.02184652,14.7336875 1.22154209,14.875 1.44566851,14.875 L4.48571501,14.875 L4.99770048,15.688875 C5.09436164,15.844 5.26431532,15.9375 5.44701553,15.9375 L1.59331578,15.9375 C1.30014567,15.9375 1.06221052,16.1755 1.06221052,16.46875 C1.06221052,16.762 1.30014567,17 1.59331578,17 L19.6508946,17 C19.9440647,17 20.1819998,16.762 20.1819998,16.46875 C20.1819998,16.1755 19.9440647,15.9375 19.6508946,15.9375 L15.7971948,15.9375 C15.979895,15.9375 16.1498487,15.844 16.2465099,15.688875 L16.7584953,14.875 L19.7985418,14.875 C20.0226682,14.875 20.2223638,14.7336875 20.2977808,14.5233125 C20.2977808,14.5233125 21.2442103,13.168625 21.2442103,12.75 C21.2442103,12.331375 19.774111,5.7173125 19.774111,5.7173125 L19.774111,5.7173125 Z M4.24884207,10.09375 C4.24884207,10.387 4.54201217,10.625 4.24884207,10.625 L2.12442103,10.625 C1.96296503,10.625 1.81106893,10.5516875 1.71015893,10.4263125 C1.60924893,10.3009375 1.57100935,10.13625 1.6060623,9.979 L2.07449714,7.854 C2.12760767,7.6106875 2.34429861,7.4375 2.59285587,7.4375 L4.24884207,7.4375 C4.54201217,7.4375 4.24884207,7.6755 4.24884207,7.96875 L4.24884207,10.09375 L4.24884207,10.09375 Z M9.55989465,10.09375 C9.55989465,10.387 9.3219595,10.625 9.02878939,10.625 L5.84215784,10.625 C5.54898774,10.625 5.31105258,10.387 5.31105258,10.09375 L5.31105258,7.96875 C5.31105258,7.6755 5.54898774,7.4375 5.84215784,7.4375 L9.02878939,7.4375 C9.3219595,7.4375 9.55989465,7.6755 9.55989465,7.96875 L9.55989465,10.09375 L9.55989465,10.09375 Z M7.29951067,15.9375 C7.48221088,15.9375 7.65216456,15.844 7.74882572,15.688875 L8.26081119,14.875 L12.9844614,14.875 L13.4953846,15.688875 C13.5920458,15.844 13.7619995,15.9375 13.9446997,15.9375 L7.29951067,15.9375 L7.29951067,15.9375 Z M14.8709472,10.09375 C14.8709472,10.387 14.6330121,10.625 14.339842,10.625 L11.1532104,10.625 C10.8600403,10.625 10.6221052,10.387 10.6221052,10.09375 L10.6221052,7.96875 C10.6221052,7.6755 10.8600403,7.4375 11.1532104,7.4375 L14.339842,7.4375 C14.6330121,7.4375 14.8709472,7.6755 14.8709472,7.96875 L14.8709472,10.09375 L14.8709472,10.09375 Z M19.5340514,10.4263125 C19.4331414,10.5516875 19.2801831,10.625 19.1197893,10.625 L16.9953683,10.625 C16.7021982,10.625 15.9331578,10.387 15.9331578,10.09375 L15.9331578,7.96875 C15.9331578,7.6755 16.7021982,7.4375 16.9953683,7.4375 L18.6513545,7.4375 C18.9009739,7.4375 19.1155405,7.6106875 19.1697132,7.854 L19.638148,9.979 C19.673201,10.13625 19.6349614,10.3009375 19.5340514,10.4263125 L19.5340514,10.4263125 Z" id="tram_tram"></path>
            </g>
        </g>
    </g>
</svg>
